# xmcd
#
# Track frame offsets: 
#        150
#        19302
#        40136
#        58781
#        73900
#        94336
#        114858
#        136586
#        155578
#        175117
#        199352
#        216587
#
# Disc length: 3153 seconds
#
# Revision: 0
# Processed by: cddbd v1.5.2PL0 Copyright (c) Steve Scherf et al.
# Submitted via: ExactAudioCopy v0.99pb5
#
DISCID=b10c4f0c
DTITLE=The Band Of Heathens  - Top Hat Crown and The Clapmaster´s Son
DYEAR=2011
DGENRE=Rock
TTITLE0=Medicine Man
TTITLE1=Should Have Known
TTITLE2=Enough
TTITLE3=Polaroid
TTITLE4=Nothing To See Here
TTITLE5=The Other Broadway
TTITLE6=I Ain't Running
TTITLE7=Gravity
TTITLE8=Free Again
TTITLE9=Hurricane
TTITLE10=Gris Gris Satchel
TTITLE11=Motherland
EXTD=
EXTT0=
EXTT1=
EXTT2=
EXTT3=
EXTT4=
EXTT5=
EXTT6=
EXTT7=
EXTT8=
EXTT9=
EXTT10=
EXTT11=
PLAYORDER=
